<svg width="128" height="128" xmlns="http://www.w3.org/2000/svg"><path d="M64 128C28.654 128 0 99.346 0 64 0 28.654 28.654 0 64 0c35.346 0 64 28.654 64 64 0 35.346-28.654 64-64 64zm10.93-48.868c11.216-.106 17.557 2.034 22.968 9.481l2.746-1.995c-5.988-8.242-13.033-10.82-24.518-10.882.403-1.127.827-2.31.985-2.762 3.104-8.89 3.426-14.031-.251-19.092-3.704-5.098-8.672-6.311-18.134-5.963-.418.015-1.543.065-2.655.113 3.572-10.753 3.332-18.177-2.645-26.403l-2.746 1.995c5.41 7.445 5.436 14.063 1.756 24.548-11.109.26-17.395-1.81-22.804-9.255l-2.746 1.995c5.977 8.226 12.963 10.748 24.294 10.674-.39 1.043-.785 2.097-.929 2.49-3.255 8.892-3.636 13.991.068 19.089 3.677 5.06 8.665 6.343 18.08 6.139.48-.01 1.735-.048 2.931-.084-3.49 10.943-3.215 18.439 2.773 26.681l2.746-1.995c-5.41-7.447-5.486-14.14-1.92-24.774zM54.842 51.483c1.393-.06 3.428-.151 4.008-.172 8.422-.31 12.433.67 15.264 4.566 2.82 3.882 2.559 8.055-.208 15.978-.21.604-.924 2.589-1.405 3.935-1.428.041-3.536.106-4.176.12-8.39.183-12.44-.859-15.26-4.74-2.83-3.896-2.523-8.014.374-15.928.2-.545.916-2.452 1.403-3.759zm20.35 39.563l1.972 2.713 10.984-7.98-1.971-2.713-10.985 7.98zM59.658 70.164l1.971 2.714 10.984-7.98-1.971-2.714-10.984 7.98zm-5.32-7.322l1.97 2.713 10.985-7.98-1.971-2.714-10.984 7.98zM39.28 41.618l1.97 2.713 10.985-7.98-1.971-2.713-10.984 7.98z" fill="#000" fill-rule="evenodd"/></svg>