<svg width="128" height="128" xmlns="http://www.w3.org/2000/svg"><path d="M80.974 87.341c-5.419 16.152-5.303 26.317 2.915 37.629l-4.17 3.03c-9.097-12.519-9.514-23.904-4.213-40.525-1.817.054-3.724.11-4.452.127-14.3.31-21.877-1.638-27.461-9.324-5.626-7.743-5.047-15.489-.103-28.995.218-.596.817-2.198 1.41-3.782C27.69 45.614 17.078 41.783 8 29.29l4.17-3.03c8.217 11.308 17.764 14.452 34.638 14.058 5.59-15.926 5.55-25.978-2.667-37.287L48.312 0c9.078 12.495 9.443 23.77 4.017 40.104 1.69-.074 3.398-.15 4.032-.173 14.373-.528 21.918 1.315 27.544 9.058 5.585 7.687 5.096 15.494.381 28.999-.24.687-.883 2.483-1.496 4.194 17.445.095 28.145 4.01 37.24 16.53l-4.17 3.03c-8.219-11.312-17.851-14.563-34.886-14.4zM50.462 45.346c-.74 1.984-1.828 4.88-2.131 5.709-4.4 12.02-4.867 18.274-.567 24.192 4.283 5.896 10.434 7.478 23.178 7.2.972-.02 4.173-.12 6.343-.183.73-2.044 1.814-5.058 2.134-5.976 4.202-12.034 4.598-18.373.315-24.268-4.3-5.919-10.392-7.407-23.184-6.937-.881.033-3.972.172-6.088.263zm30.91 60.092l16.684-12.122 2.994 4.121-16.684 12.121-2.994-4.12zM57.777 73.72L74.461 61.6l2.994 4.12L60.77 77.842l-2.994-4.12zm-8.08-11.122L66.38 50.476l2.994 4.121L52.69 66.72l-2.994-4.121zM26.826 30.36L43.51 18.24l2.994 4.12L29.82 34.483l-2.994-4.12z" fill="#000" fill-rule="evenodd"/></svg>