<svg width="149" height="62" xmlns="http://www.w3.org/2000/svg" id="logo"><g fill="currentColor" fill-rule="evenodd"><path d="M57.469 36l-4.125-13.441h-.106c.149 2.734.223 4.558.223 5.472V36h-3.246V18.867h4.945l4.055 13.102h.07l4.3-13.102h4.946V36h-3.386v-8.11c0-.382.005-.824.017-1.324.012-.5.065-1.828.158-3.984h-.105L60.797 36h-3.328zm13.218-13.102h3.915l2.472 7.372c.211.64.356 1.398.434 2.273h.07c.086-.805.254-1.563.504-2.273l2.426-7.372h3.832l-5.543 14.778c-.508 1.367-1.233 2.39-2.174 3.07-.941.68-2.041 1.02-3.299 1.02a8.296 8.296 0 0 1-1.816-.2V38.73c.43.102.898.153 1.406.153a2.54 2.54 0 0 0 1.658-.58c.473-.387.842-.971 1.108-1.752l.21-.645-5.203-13.008zm20.954 2.297c-.758 0-1.352.24-1.782.721-.43.48-.675 1.162-.738 2.045h5.016c-.016-.883-.246-1.565-.692-2.045-.445-.48-1.047-.72-1.804-.72zm.504 11.04c-2.11 0-3.758-.583-4.946-1.747-1.187-1.164-1.781-2.812-1.781-4.945 0-2.195.549-3.893 1.646-5.092 1.098-1.2 2.616-1.799 4.553-1.799 1.852 0 3.293.528 4.324 1.582 1.032 1.055 1.547 2.512 1.547 4.371v1.735H89.04c.04 1.015.34 1.808.902 2.379.563.57 1.352.855 2.368.855.789 0 1.535-.082 2.238-.246a11.2 11.2 0 0 0 2.203-.785v2.766a8.393 8.393 0 0 1-2.004.697c-.71.152-1.578.228-2.601.228zM103.969 36h-3.574V17.766h3.574V36zm3.597-16.488c0-1.164.649-1.746 1.946-1.746s1.945.582 1.945 1.746c0 .554-.162.986-.486 1.295-.325.308-.81.463-1.46.463-1.296 0-1.945-.586-1.945-1.758zM111.293 36h-3.574V22.898h3.574V36zm15.844 0h-3.575v-7.652c0-.946-.167-1.655-.503-2.127-.336-.473-.871-.71-1.606-.71-1 0-1.723.335-2.168 1.003-.445.668-.668 1.775-.668 3.322V36h-3.574V22.898h2.73l.48 1.676h.2a3.777 3.777 0 0 1 1.647-1.435c.699-.325 1.494-.487 2.384-.487 1.524 0 2.68.412 3.47 1.237.788.824 1.183 2.013 1.183 3.568V36zM78.69 52.3l3.93-8.42h.84l-3.93 8.42h-.84zm8.165-9.161h.606v1.655h-.606v-1.655zm7.716 2.631c.85 0 1.25.52 1.25 1.77V51h-.83v-3.13c0-.88-.1-1.3-.6-1.3-.51 0-.73.59-.73 1.35V51h-.83v-3.22c0-.66-.08-1.21-.57-1.21-.51 0-.77.59-.77 1.35V51h-.83v-5.11h.78v.66c.19-.5.51-.78.99-.78.55 0 .88.4 1 .78.23-.42.6-.78 1.14-.78zm5.227-.224L102.166 51h-.996l-1.87-4.316L97.39 51h-.908l2.388-5.454h.928zM103.162 51v-.757h1.665v-3.935h-1.665v-.762h4.316v.762h-1.665v3.935h1.665V51h-4.316zm8.2-5.23c1.44 0 2.28 1.08 2.28 2.68 0 1.69-.93 2.67-2.28 2.67-1.22 0-2.19-.83-2.19-2.47 0-.13 0-.31.02-.55h3.58c-.12-1.04-.61-1.56-1.43-1.56-.49 0-.87.13-1.25.43l-.49-.55c.43-.37 1.01-.65 1.76-.65zm0 4.59c.87 0 1.35-.58 1.42-1.51h-2.76c.02 1.15.72 1.51 1.34 1.51zm6.62-.12h1.44V51h-3.72v-.76h1.43v-5.7h-1.23l-.38-.76h2.46v6.46zm3.5.76v-.757h1.666v-3.935h-1.665v-.762h4.316v.762h-1.665v3.935h1.665V51h-4.316zm8.432-5.23c1.2 0 1.89.65 1.89 2.3V51h-.85v-3.04c0-1.03-.52-1.41-1.19-1.41-.72 0-1.26.33-1.26 1.39V51h-.85v-5.11h.8v.61c.29-.46.81-.73 1.46-.73zm3.58 6.53l3.93-8.42h.84l-3.93 8.42h-.84z" fill-rule="nonzero"/><path d="M34.06 43.528c6.589-.062 10.314 1.195 13.493 5.57l1.613-1.172c-3.518-4.842-7.656-6.356-14.404-6.393.237-.662.486-1.357.579-1.623 1.824-5.223 2.012-8.243-.148-11.216-2.176-2.995-5.094-3.708-10.654-3.504l-1.56.067c2.1-6.318 1.959-10.679-1.553-15.512l-1.613 1.172c3.178 4.374 3.193 8.262 1.031 14.422-6.526.153-10.22-1.063-13.397-5.437l-1.613 1.172c3.51 4.833 7.615 6.314 14.272 6.27l-.545 1.463c-1.912 5.225-2.136 8.22.04 11.216 2.16 2.973 5.09 3.726 10.622 3.606.281-.006 1.019-.028 1.721-.05-2.05 6.43-1.888 10.834 1.63 15.676l1.613-1.172c-3.179-4.375-3.223-8.307-1.128-14.555zM22.257 27.285c.818-.035 2.014-.09 2.355-.102 4.947-.182 7.304.394 8.967 2.683 1.657 2.28 1.503 4.732-.122 9.387-.124.355-.543 1.52-.825 2.312-.84.024-2.078.062-2.454.07-4.929.108-7.308-.504-8.965-2.785-1.663-2.289-1.482-4.708.22-9.357.117-.32.537-1.441.824-2.208zm11.956 23.243l1.158 1.594 6.453-4.689-1.158-1.594-6.453 4.689zM25.087 38.26l1.158 1.594 6.453-4.689-1.158-1.594-6.453 4.689zm-3.126-4.302l1.159 1.594 6.453-4.689-1.158-1.594-6.454 4.689zm-8.846-12.47l1.159 1.595 6.453-4.689-1.158-1.594-6.454 4.689z"/></g></svg>
