<svg viewBox="0 0 128 128" xmlns="http://www.w3.org/2000/svg" id="icon"><path d="M61.698 107.425a17.064 17.064 0 0 1-.265-2.894l.668.002-.668-.002V19.484c.013-.741.073-1.47.177-2.183-1.002-5.056-5.135-8.666-10.415-8.574a10.989 10.989 0 0 0-7.113 2.764A18.034 18.034 0 0 1 50.21 18l-4.133 2.29c-3.585-6.467-11.735-8.804-18.202-5.219-5.252 2.911-7.828 8.884-6.6 14.54a18.039 18.039 0 0 1 7.222 2.516 18.153 18.153 0 0 1 3.659-2.564c8.833-4.697 19.802-1.343 24.498 7.49l-4.172 2.219c-3.472-6.53-11.579-9.008-18.108-5.536-6.53 3.471-9.008 11.578-5.536 18.107a13.317 13.317 0 0 0 4.79 5.111 18.234 18.234 0 0 1 2.811-1.24l1.539 4.467c-6.992 2.408-10.708 10.028-8.3 17.02 2.206 6.408 8.846 10.137 15.416 8.744l.98 4.623a18.016 18.016 0 0 1-5.531.305 18.044 18.044 0 0 1-3.326 8.426 18.244 18.244 0 0 1-1.905 2.224c-1.839 5.196-.328 11.207 4.2 14.873 5.746 4.654 14.177 3.768 18.831-1.98 1.399-1.727 2.716-4.46 3.356-6.992zM64 104.54zm1.9-.006l.667-.002c0 .912-.091 1.89-.265 2.894.64 2.533 1.957 5.265 3.356 6.993 4.654 5.747 13.085 6.633 18.832 1.98 4.527-3.667 6.038-9.678 4.2-14.874a18.244 18.244 0 0 1-1.906-2.224 18.044 18.044 0 0 1-3.326-8.426c-1.81.18-3.673.09-5.531-.305l.98-4.623c6.57 1.393 13.21-2.336 15.417-8.745 2.407-6.991-1.31-14.611-8.3-17.019l1.538-4.468c.987.34 1.926.757 2.812 1.241a13.317 13.317 0 0 0 4.79-5.11c3.47-6.53.992-14.637-5.537-18.108-6.53-3.472-14.636-.993-18.108 5.536l-4.172-2.219c4.696-8.833 15.665-12.187 24.498-7.49a18.153 18.153 0 0 1 3.659 2.564 18.039 18.039 0 0 1 7.223-2.516c1.227-5.656-1.35-11.629-6.6-14.54-6.468-3.585-14.618-1.248-18.203 5.22L77.791 18a18.034 18.034 0 0 1 6.127-6.51 10.989 10.989 0 0 0-7.113-2.764c-5.28-.092-9.413 3.518-10.415 8.574.104.713.164 1.442.177 2.183v85.047l-.668.002zm-1.9 9.751c-.59 1.152-1.26 2.212-1.985 3.108-6.297 7.775-17.703 8.974-25.479 2.678-4.626-3.746-6.924-9.302-6.7-14.825-5.698 2.492-12.529 1.982-17.923-1.937-7.094-5.154-9.349-14.493-5.839-22.171-.494-.44-.969-.912-1.42-1.415-5.851-6.497-6.13-16.065-1.145-22.842-3.362-5.645-3.524-12.927.197-18.883a18.076 18.076 0 0 1 12.77-8.33c-1.191-7.367 2.293-14.95 9.107-18.728a18.06 18.06 0 0 1 13.921-1.527 15.712 15.712 0 0 1 11.609-5.41c5.5-.096 10.164 2.643 12.887 6.869 2.723-4.226 7.386-6.965 12.887-6.869a15.712 15.712 0 0 1 11.609 5.41 18.06 18.06 0 0 1 13.921 1.527c6.814 3.777 10.298 11.361 9.107 18.729a18.076 18.076 0 0 1 12.77 8.33c3.721 5.955 3.559 13.237.197 18.882 4.985 6.777 4.706 16.345-1.144 22.842-.452.503-.927.974-1.421 1.415 3.51 7.678 1.255 17.017-5.839 22.17-5.394 3.92-12.225 4.43-17.923 1.938.224 5.523-2.074 11.079-6.7 14.825-7.776 6.296-19.182 5.097-25.479-2.678-.725-.896-1.395-1.956-1.985-3.108zM25.396 35.796c-6.162-3.312-13.921-1.313-17.682 4.705-3.919 6.271-2.012 14.532 4.26 18.45.682.427 1.394.788 2.128 1.083l-1.758 4.386a18.21 18.21 0 0 1-2.875-1.461 18.2 18.2 0 0 1-2.861-2.21C3.683 65.658 4.14 72.091 8.165 76.56c4.399 4.886 11.652 5.82 17.106 2.36l-.063-.18c-2.346-6.814-.394-14.068 4.417-18.81a18.062 18.062 0 0 1-4.96-5.867c-3.18-5.98-2.67-12.938.731-18.267zm2.034 47.345c-5.367 3.227-11.934 3.382-17.365.691-2.135 5.526-.393 12.006 4.625 15.652 5.983 4.347 14.356 3.02 18.703-2.962a13.315 13.315 0 0 0 2.512-6.743 18.151 18.151 0 0 1-8.475-6.638zm75.174-47.345c3.402 5.329 3.911 12.287.732 18.267a18.062 18.062 0 0 1-4.96 5.867c4.81 4.742 6.762 11.996 4.416 18.81l-.063.18c5.454 3.46 12.707 2.526 17.106-2.36 4.024-4.469 4.482-10.902 1.557-15.81a18.2 18.2 0 0 1-2.861 2.209 18.21 18.21 0 0 1-2.875 1.46l-1.758-4.385a13.484 13.484 0 0 0 2.128-1.083c6.272-3.918 8.179-12.179 4.26-18.45-3.76-6.018-11.52-8.017-17.682-4.705zm-2.034 47.345a18.151 18.151 0 0 1-8.475 6.638 13.315 13.315 0 0 0 2.512 6.743c4.347 5.983 12.72 7.309 18.703 2.962 5.018-3.646 6.76-10.126 4.625-15.652-5.43 2.691-11.998 2.536-17.365-.69z" fill="currentColor" fill-rule="evenodd"/></svg>
