<svg viewBox="0 0 128 128" xmlns="http://www.w3.org/2000/svg" id="icon"><path d="M85.49 42.51c17.698 2.975 28.255 1.18 38.67-9.234l3.84 3.84c-11.526 11.526-23.303 13.836-41.47 11.06.356 1.882.73 3.857.866 4.611 2.68 14.828 1.901 23.031-5.176 30.108-7.129 7.13-15.283 7.804-30.15 4.886-.655-.129-2.421-.49-4.167-.845 2.954 17.889.717 29.56-10.787 41.064l-3.84-3.84c10.411-10.412 12.11-20.864 8.919-38.355-17.491-3.19-27.943-1.492-38.355 8.92L0 90.884C11.504 79.38 23.175 77.142 41.064 80.096c-.356-1.746-.716-3.512-.845-4.167-2.918-14.867-2.244-23.021 4.886-30.15 7.077-7.077 15.28-7.856 30.108-5.176.754.136 2.73.51 4.61.866C77.048 23.303 79.358 11.526 90.884 0l3.84 3.84C84.31 14.255 82.514 24.812 85.49 42.51zM46.825 81.175c2.186.443 5.38 1.098 6.291 1.277 13.231 2.596 19.815 2.052 25.264-3.397 5.428-5.428 6.06-12.088 3.672-25.302-.182-1.007-.813-4.322-1.236-6.569-2.247-.423-5.562-1.054-6.57-1.236-13.213-2.388-19.873-1.756-25.301 3.672-5.449 5.449-5.993 12.033-3.397 25.264.18.912.834 4.105 1.277 6.291zm42.062-57.428l3.794-3.794 15.361 15.361-3.794 3.794-15.36-15.36zM59.112 52.86l3.794-3.794 15.36 15.36-3.794 3.795-15.36-15.361zM48.87 63.099l3.794-3.794 15.36 15.36-3.793 3.795L48.87 63.1zM19.764 92.871l3.794-3.795 15.36 15.361-3.793 3.794-15.36-15.36z" fill="currentColor" fill-rule="evenodd"/></svg>
