<svg viewBox="0 0 128 128" xmlns="http://www.w3.org/2000/svg" id="icon"><path d="M63.854 21C83.57 21 99.974 36.551 100 55.951c0 8.744-3.338 17.2-9.728 23.746-5.842 5.995-8.893 14.478-8.893 23.746l-.026 14.19c0 5.733-4.72 10.367-10.562 10.367H57.177c-5.842 0-10.562-4.634-10.562-10.368l.026-14.19c0-9.005-3.338-17.75-9.44-24.295-6.938-7.645-10.276-17.75-8.894-28.118C30.524 35.478 44.503 21 63.854 21zm12.205 96.632h-.026v-6.283H52.43v6.283c0 2.75 2.217 4.922 5.007 4.922h13.614c2.79 0 5.007-2.199 5.007-4.922zm10.327-41.758c5.269-5.471 8.059-12.566 8.059-19.923 0-16.101-13.614-29.48-30.565-29.48-16.196 0-28.323 12.306-30.279 25.396-1.095 8.744 1.409 17.2 7.511 23.746 6.937 7.644 11.11 17.724 11.11 27.83v2.46h23.602v-2.46c0-10.656 3.625-20.474 10.562-27.569zM61 0h6v13h-6V0zm37 25.126L107.206 16 111 19.874 101.768 29 98 25.126zM114 59h14v5h-14v-5zM0 59h14v5H0v-5zm20.794-43L30 25.126 26.232 29 17 19.874 20.794 16z" fill="currentColor" fill-rule="nonzero"/></svg>
