<svg viewBox="0 0 128 128" xmlns="http://www.w3.org/2000/svg" id="icon"><path d="M25.329 38.994C23.85 50.039 27.42 60.806 34.84 68.95c6.527 6.973 10.098 16.29 10.098 25.885l-.028 15.118c0 6.109 5.048 11.046 11.296 11.046h14.56c6.249 0 11.298-4.937 11.298-11.046l.027-15.118c0-9.874 3.264-18.912 9.512-25.3 6.834-6.973 10.404-15.982 10.404-25.298C101.98 23.568 84.434 7 63.347 7 42.65 7 27.7 22.425 25.33 38.994zm45.717 76.204h-14.56c-2.985 0-5.356-2.315-5.356-5.244v-6.694h25.244v6.694c.027 2.901-2.344 5.244-5.328 5.244zm16.401-49.734c-7.42 7.56-11.297 18.02-11.297 29.372v2.622H50.907v-2.622c0-10.767-4.463-21.506-11.883-29.65-6.527-6.974-9.205-15.983-8.033-25.3C33.083 25.94 46.053 12.83 63.375 12.83c18.13 0 32.691 14.253 32.691 31.408 0 7.838-2.985 15.397-8.619 21.226z" fill="currentColor" fill-rule="nonzero"/></svg>
