<svg viewBox="0 0 128 128" xmlns="http://www.w3.org/2000/svg" id="icon"><path d="M45.308 113.23H32.179c-9.969 0-18.05-8.081-18.05-18.05V82.05H1v-6.564h13.128v-8.205H1v-6.564h13.128v-8.205H1v-6.564h13.128V32.82c0-9.97 8.082-18.052 18.051-18.052h13.129V0h6.564v14.77h8.205V0h6.564v14.77h8.205V0h6.564v14.77h13.128c9.97 0 18.052 8.081 18.052 18.05v13.13h14.769v6.564h-14.77v8.205h14.77v6.564h-14.77v8.205h14.77v6.564h-14.77V95.18c0 9.97-8.081 18.052-18.05 18.052H81.41V128h-6.564v-14.77h-8.205V128h-6.564v-14.77h-8.205V128h-6.564v-14.77zM32.179 21.334c-6.344 0-11.487 5.143-11.487 11.488V95.18c0 6.345 5.143 11.488 11.487 11.488h62.36c6.344 0 11.487-5.143 11.487-11.488V32.821c0-6.345-5.143-11.488-11.488-11.488H32.18z" fill="currentColor"/></svg>
